<svg xmlns="http://www.w3.org/2000/svg" viewBox="0 0 92.5 94.1"><defs><style>.cls-1{fill:#1d1d1b;}.cls-2{fill:#fff;}</style></defs><g id="Layer_2" data-name="Layer 2" width="current" height="current"><g id="Layer_2-2" data-name="Layer 2"><path class="cls-1" d="M65.11,89.59a4.54,4.54,0,0,1-2-.44c-1.29-.62-3.45-2.45-3.46-7.69l-.3-50.7c0-6.23,3.1-13.88,7.09-17.42L79.22,2c3-2.64,5.32-2.11,6.45-1.56,1.29.62,3.45,2.44,3.46,7.69l.29,50.69c0,6.24-3.1,13.88-7.08,17.42h0L69.59,87.58A6.72,6.72,0,0,1,65.11,89.59ZM83.71,4.5A3.08,3.08,0,0,0,82,5.44L69.26,16.77c-3,2.69-5.58,9.09-5.57,14l.3,50.7c0,2.31.59,3.44,1,3.62s.89,0,1.86-.91L79.56,72.82c3-2.69,5.57-9.08,5.56-14L84.83,8.16c0-2.31-.59-3.45-1-3.63A.35.35,0,0,0,83.71,4.5Z"/><path class="cls-1" d="M56.86,88a9.1,9.1,0,0,1-4.18-1.13L36.5,78.38c-5.18-2.73-9.24-9.76-9.24-16L27,13.5c0-3.44,1.27-6.23,3.48-7.66s4.91-1.36,7.69.1l16.18,8.51c5.19,2.73,9.25,9.76,9.25,16l.23,48.86c0,3.45-1.27,6.23-3.48,7.66A6.35,6.35,0,0,1,56.86,88Zm-2.24-5.15c1.41.73,2.65.84,3.5.29s1.44-2,1.44-3.82l-.23-48.86c0-4.55-3.15-10-6.88-12L36.27,10c-1.41-.75-2.66-.85-3.5-.3s-1.44,2-1.44,3.82l.23,48.86c0,4.56,3.15,10.05,6.87,12Z"/><circle class="cls-2" cx="58.26" cy="52.74" r="17.76"/><path class="cls-1" d="M91.77,84.67,75.61,66.09a2.13,2.13,0,0,0-.31-.29A21.63,21.63,0,0,0,52.6,31.92,21.58,21.58,0,1,0,71.14,70L87.28,88.57a3,3,0,0,0,3,.91,2.85,2.85,0,0,0,1.16-.62A3,3,0,0,0,91.77,84.67ZM42.77,57A16,16,0,1,1,62.52,68.43,16.15,16.15,0,0,1,42.77,57Z"/><path class="cls-1" d="M5.72,94.1a4.47,4.47,0,0,1-2-.45C2.47,93,.31,91.2.29,86L0,35.26C0,29,3.09,21.39,7.08,17.84L19.83,6.51c3-2.63,5.32-2.11,6.45-1.56s3.44,2.45,3.45,7.69l.3,50.7c0,6.23-3.1,13.88-7.08,17.41h0L10.2,92.08A6.76,6.76,0,0,1,5.72,94.1ZM24.32,9a3.11,3.11,0,0,0-1.71.93L9.86,21.27c-3,2.7-5.57,9.09-5.56,14l.29,50.69c0,2.31.6,3.45,1,3.62s.9,0,1.87-.91L20.17,77.32c3-2.68,5.57-9.08,5.56-14l-.3-50.69c0-2.31-.59-3.45-1-3.63Z"/></g></g></svg>