<svg xmlns="http://www.w3.org/2000/svg" viewBox="0 0 196.5 92.15"><defs><style>.cls-1{fill:#f18a00;}.cls-2{fill:#d2451e;}.cls-3{fill:#fcbf00;}.cls-4{font-size:26.8px;font-family:BMHANNAProOTF-KSCpc-EUC-H, BM Hanna Pro;letter-spacing:-0.01em;}.cls-12,.cls-4{fill:#1d1d1b;}.cls-5{letter-spacing:0.08em;}.cls-6{font-size:31.83px;letter-spacing:0.08em;}.cls-7,.cls-8{font-size:26.52px;}.cls-7{letter-spacing:0.08em;}.cls-8{letter-spacing:0.02em;}.cls-9{letter-spacing:0.12em;}.cls-10{fill:#fed76a;}.cls-11{fill:none;stroke:#1d1d1b;stroke-miterlimit:10;}</style></defs><g id="Layer_2" data-name="Layer 2"><g id="Layer_2-2" data-name="Layer 2"><path class="cls-1" d="M22.41,40.45,21.09,53.53c-.13,1.36.75,2,2,1.38l4.6-2.29A3.37,3.37,0,0,0,29.76,49l-.54-10.68-1.07-.43Z"/><path class="cls-1" d="M19.15,34.27,1.3,39.93C0,40.36-.24,41.34.85,42.24l4.2,3.45a3.89,3.89,0,0,0,4.19.56l13.17-5.8.47-4.67Z"/><polygon class="cls-2" points="22.88 35.78 22.41 40.45 28.15 37.92 22.88 35.78"/><path class="cls-2" d="M29.69,37.25l16.89-3.76A1.4,1.4,0,0,0,47.45,31l-2.61-3.24A3.06,3.06,0,0,0,41,26.68l-6,2.13Z"/><path class="cls-3" d="M34.92,28.81l8.17-13.18a3.82,3.82,0,0,0,.13-4.3L40.36,6.11c-.66-1.19-1.64-1.14-2.19.12L29,27.19a6.24,6.24,0,0,1,2.11,3Z"/><path class="cls-2" d="M29.45,5.93c0-1.39-.83-1.9-2-1.12L22.53,8.2l5.54,18.37a6.72,6.72,0,0,1,.92.62Z"/><path class="cls-1" d="M22.53,8.2a3.46,3.46,0,0,0-1.31,3.45L22.8,25.76a6.92,6.92,0,0,1,4.34.36,6.67,6.67,0,0,1,.93.45Z"/><path class="cls-3" d="M21.22,11.65A3.46,3.46,0,0,1,22.53,8.2L21.16,3.66A3.4,3.4,0,0,0,18,.93L11.64,0c-1.34-.19-2,.66-1.41,1.91L21.41,26.31a5.6,5.6,0,0,1,1.39-.55Z"/><path class="cls-2" d="M10.13,16a3.37,3.37,0,0,0-4.08-.63L1,17.72c-1.24.57-1.33,1.64-.18,2.38l4.74,3A3.13,3.13,0,0,1,9.1,23l10.38,5.05a5.71,5.71,0,0,1,1.93-1.74Z"/><path class="cls-3" d="M1.28,26.63c-1.06.88-.84,1.92.46,2.3l15.38,4.52L18,31.18l-12.49-8Z"/><path class="cls-1" d="M9.1,23a3.13,3.13,0,0,0-3.55.15l12.49,8,.76-1.87a5.85,5.85,0,0,1,.68-1.26Z"/><path class="cls-1" d="M31.1,30.16a5.89,5.89,0,0,1-.18,4.06l-1.23,3,5.23-8.44Z"/><text class="cls-4" transform="translate(65.87 48.66)">Y<tspan class="cls-5" x="17.82" y="0">ou</tspan><tspan class="cls-6" x="50.65" y="0">’</tspan><tspan class="cls-7" x="62.24" y="0">re</tspan><tspan class="cls-8"><tspan x="0" y="28.59">W</tspan><tspan class="cls-9" x="26.15" y="28.59">ebcome</tspan></tspan></text><path class="cls-10" d="M55.36,90.54s-59.1-36.63-37.18-63.3c16.13-19.62,37.18,3.82,37.18,3.82Z"/><path class="cls-11" d="M46.14,34.48a23.85,23.85,0,0,1-11.81,25"/><circle class="cls-12" cx="26.69" cy="44.32" r="2.89"/><circle class="cls-12" cx="34.33" cy="34.48" r="2.89"/></g></g></svg>